Coordinates
version=1
nRows=11
nColumns=42
inDegrees=yes

Units are S.I. units (second, meters, Newtons, ...)
If the header above contains a line with 'inDegrees', this indicates whether rotational values are in degrees (yes) or radians (no).

endheader
time	pelvis_tilt	pelvis_list	pelvis_rotation	pelvis_tx	pelvis_ty	pelvis_tz	hip_flexion_r	hip_adduction_r	hip_rotation_r	knee_angle_r	knee_adduction_r	knee_angle_r_beta	ankle_angle_r	subtalar_angle_r	mtp_angle_r	hip_flexion_l	hip_adduction_l	hip_rotation_l	knee_angle_l	knee_adduction_l	knee_angle_l_beta	ankle_angle_l	subtalar_angle_l	mtp_angle_l	lumbar_extension	lumbar_bending	lumbar_rotation	arm_flex_r	arm_add_r	arm_rot_r	elbow_flex_r	pro_sup_r	wrist_flex_r	wrist_dev_r	arm_flex_l	arm_add_l	arm_rot_l	elbow_flex_l	pro_sup_l	wrist_flex_l	wrist_dev_l
      2.05000000	      6.87458306	      5.81805714	     -3.08947298	     -0.49231921	      0.98043277	      0.31905373	    -19.20758640	     -9.69627748	    -16.04727289	     25.67725257	      1.76422872	      0.44815260	      6.39089550	      7.76148586	     -7.57605056	      8.06381764	      5.22776110	    -13.60762085	      3.74255082	     -0.96748347	      0.06531983	     -8.32876486	     11.03741956	     -7.57605056	    -16.91859177	    -11.01554687	      4.92446692	     23.71442527	    -17.64479471	     29.10736132	     37.31766742	     90.00000001	      0.00000000	      0.00000000	    -17.24112746	    -14.38427933	      8.22769423	     40.02341365	     90.00000001	      0.00000000	      0.00000000
      2.06000000	      6.91897465	      6.11780631	     -3.11000285	     -0.48280498	      0.98218319	      0.31710122	    -18.40526038	    -10.62647830	    -16.91214780	     28.17029700	      1.52034315	      0.49166443	      3.82984962	      6.83211756	     -7.57492828	      7.19609414	      5.80834832	    -13.73169897	      3.27526387	     -1.05341335	      0.05716414	     -7.93228692	     11.60472176	     -7.57492828	    -16.91061833	    -11.42880571	      4.84775555	     22.83746791	    -17.67486680	     29.02336278	     37.33371946	     90.00000001	      0.00000000	      0.00000000	    -16.62856150	    -14.65422691	      8.57114261	     39.69928747	     90.00000001	      0.00000000	      0.00000000
      2.07000000	      7.11301397	      5.98270124	     -2.85733961	     -0.47389753	      0.98421462	      0.31484399	    -17.87420680	    -11.08536789	    -16.98228986	     30.51158252	      1.87247143	      0.53252757	      2.09485424	      6.49850990	     -7.57416221	      6.35824273	      5.80365266	    -13.66466735	      3.25464416	     -0.89141475	      0.05680426	     -7.56049673	     11.91399508	     -7.57416221	    -17.23576278	    -11.26947112	      4.33921500	     22.23042728	    -17.60825931	     28.91462248	     37.37356999	     90.00000001	      0.00000000	      0.00000000	    -16.07616425	    -14.83059955	      8.81036203	     39.62711256	     90.00000001	      0.00000000	      0.00000000
      2.08000000	      6.99942588	      6.34853846	     -2.80442035	     -0.46494995	      0.98557155	      0.31267503	    -16.55253139	    -12.18528181	    -17.93985029	     33.54323409	      1.52929770	      0.58543988	     -0.82822311	      4.91733000	     -7.57267648	      5.77579240	      6.51091427	    -13.62939492	      2.90164110	     -1.09347907	      0.05064319	     -7.04435921	     12.51509116	     -7.57267648	    -17.12404599	    -11.69886962	      4.19108349	     21.28724836	    -17.60732414	     28.69073541	     37.47088418	     90.00000001	      0.00000000	      0.00000000	    -15.34885963	    -15.24153589	      9.56132232	     39.41428783	     90.00000001	      0.00000000	      0.00000000
      2.09000000	      7.04507489	      6.41320673	     -2.65483664	     -0.45642162	      0.98715183	      0.31055310	    -15.42730834	    -12.90854371	    -18.33184180	     36.42065557	      1.43532491	      0.63566036	     -3.19595613	      3.60052013	     -7.57124571	      5.09575713	      6.79491833	    -13.50502181	      2.76347814	     -1.10508897	      0.04823179	     -6.48637190	     12.88667930	     -7.57124571	    -17.28006354	    -11.77210413	      3.90149341	     20.52148259	    -17.57370032	     28.48596078	     37.49994703	     90.00000001	      0.00000000	      0.00000000	    -14.60699165	    -15.59185932	     10.20852728	     39.33927742	     90.00000001	      0.00000000	      0.00000000
      2.10000000	      6.97157491	      6.44266652	     -2.43499014	     -0.44834867	      0.98846919	      0.30836594	    -14.09167012	    -13.59355472	    -18.10929928	     39.38246766	      1.74741156	      0.68735373	     -5.61301347	      0.96528422	     -7.56723808	      4.63635648	      7.03665489	    -13.26534341	      2.75113350	     -1.14403056	      0.04801634	     -6.03870664	     13.04390259	     -7.56723808	    -17.35639720	    -11.78117389	      3.61511863	     19.73184534	    -17.52720428	     28.06835676	     37.53430904	     90.00000001	      0.00000000	      0.00000000	    -13.75280796	    -16.10947760	     11.43495577	     39.33362675	     90.00000001	      0.00000000	      0.00000000
      2.11000000	      7.14649060	      6.42483596	     -2.25051044	     -0.44030374	      0.99000708	      0.30639219	    -12.94127793	    -14.16821313	    -18.53954596	     42.26319806	      1.44992010	      0.73763196	     -7.87026772	     -0.33260273	     -7.56579663	      3.80957774	      7.21808937	    -13.06205463	      2.56865624	     -1.14241728	      0.04483151	     -5.51106954	     13.36857086	     -7.56579663	    -17.71249001	    -11.76207847	      3.28342992	     19.02826627	    -17.50964171	     28.02604724	     37.54874436	     90.00000001	      0.00000000	      0.00000000	    -12.87220401	    -16.42327645	     11.75654918	     39.27928358	     90.00000001	      0.00000000	      0.00000000
      2.12000000	      7.44727529	      6.34050217	     -2.11295562	     -0.43255663	      0.99161965	      0.30466176	    -11.86722138	    -14.60995264	    -18.70919407	     45.05383325	      1.15003957	      0.78633773	     -9.49202940	     -1.33191975	     -7.56490764	      2.85508321	      7.22580722	    -12.83396801	      2.42541088	     -0.95110608	      0.04233141	     -4.93610530	     13.67096938	     -7.56490764	    -18.23423020	    -11.68003303	      2.96835175	     18.43645715	    -17.46522976	     28.00261412	     37.47453803	     90.00000001	      0.00000000	      0.00000000	    -11.92594780	    -16.72615110	     12.02100732	     39.25707353	     90.00000001	      0.00000000	      0.00000000
      2.13000000	      7.15180631	      6.44481655	     -1.93226115	     -0.42525778	      0.99212947	      0.30254780	     -9.94536200	    -15.38266628	    -18.20360858	     48.17842609	      1.51095412	      0.84087216	    -11.83946854	     -5.21392853	     -7.56153865	      2.70991375	      7.64339403	    -12.63016165	      2.38476313	     -1.26807830	      0.04162197	     -4.53278467	     13.61445110	     -7.56153865	    -18.09118678	    -11.74879111	      2.74005725	     17.61511277	    -17.42851064	     27.72785627	     37.50354293	     90.00000001	      0.00000000	      0.00000000	    -10.91369650	    -17.30331329	     13.41612636	     39.25263157	     90.00000001	      0.00000000	      0.00000000
      2.14000000	      7.24469001	      6.41807539	     -1.73381634	     -0.41813228	      0.99319052	      0.30070680	     -8.50597360	    -15.84665982	    -18.00926170	     50.90662387	      1.47353338	      0.88848820	    -13.43618913	     -7.39796136	     -7.55744437	      2.03430154	      7.73894451	    -12.45042043	      2.21676852	     -1.15599894	      0.03868991	     -4.17128529	     13.90781106	     -7.55744437	    -18.43595733	    -11.68862907	      2.42105313	     16.97413641	    -17.40695544	     27.63964769	     37.48426362	     90.00000001	      0.00000000	      0.00000000	     -9.79125994	    -17.69748482	     14.03405818	     39.22761556	     90.00000001	      0.00000000	      0.00000000
      2.15000000	      7.27379327	      6.45128570	     -1.54554242	     -0.41109449	      0.99395901	      0.29893329	     -6.91425674	    -16.36242757	    -18.17116864	     53.60122063	      1.08432416	      0.93551778	    -14.45434293	     -8.81405144	     -7.55556785	      1.46632458	      7.93295867	    -12.35988358	      2.08496372	     -1.17246111	      0.03638948	     -3.78325260	     14.31975202	     -7.55556785	    -18.68639844	    -11.69384043	      2.08897974	     16.32134463	    -17.36854166	     27.65731551	     37.45891968	     90.00000001	      0.00000000	      0.00000000	     -8.67849431	    -18.09479833	     14.53892157	     39.19102841	     90.00000001	      0.00000000	      0.00000000
